# xmcd
#
# Track frame offsets:
#	268
#	12101
#	23074
#	36715
#	49181
#	65196
#	73983
#	88993
#	106576
#	124563
#	137090
#	146134
#	159722
#	181348
#	197854
#	213722
#	230319
#	249751
#	272535
#	290763
#
# Disc length: 4054 seconds
# Revision: 1
# Processed by: cddbd v1.5.2PL0 Copyright (c) Steve Scherf et al.
# Submitted via: dBpowerAMP V12.0
#
DISCID=360fd314
DTITLE=Various Artist - Classic Deep South and Delta  Blues from Smithsonian Folkways
DYEAR=2018
DGENRE=Blues
TTITLE0=Big Bill Broonzy - C.C. Rider
TTITLE1=Roosevelt Sykes - Woman in Elaine, Arkansas
TTITLE2=Son House - Death Letter Blues
TTITLE3=K.C. Douglas - Your Crying Won't Make Me Stay
TTITLE4=Bukka White - Columbus, Mississippi Blues
TTITLE5=Cat-Iron - I'm Goin' to Walk Your Log
TTITLE6=Clifton Chenier - Why Did You Go Last Night
TTITLE7=Sam Chatmon - I Stand and Wonder
TTITLE8=Johnny Young and Big Walter Horton - Sleeping with the Devil
TTITLE9=Short Stuff Macon - Short Stuff's Corinna
TTITLE10=Big Joe Williams - Married Woman Blues
TTITLE11=Little Brother Montgomery - Up the Country Blues
TTITLE12=John Littlejohn - Dream
TTITLE13=Doctorr Ross - Good Morning Little School Girl
TTITLE14=Honeyboy Edwards - Catfish Blues
TTITLE15=Memphis Slim - M and O Blues
TTITLE16=Scott Dunbar - Fourty-Four
TTITLE17=Son House - Sun Goin' Down
TTITLE18=Fred McDowell - Frisco Line
TTITLE19=Big Bill Broonzy - Diggin' My Potatoes
EXTD=
EXTT0=
EXTT1=
EXTT2=
EXTT3=
EXTT4=
EXTT5=
EXTT6=
EXTT7=
EXTT8=
EXTT9=
EXTT10=
EXTT11=
EXTT12=
EXTT13=
EXTT14=
EXTT15=
EXTT16=
EXTT17=
EXTT18=
EXTT19=
PLAYORDER=
